<svg width="56" height="56" viewBox="0 0 56 56" fill="none" xmlns="http://www.w3.org/2000/svg">
<path d="M28 53C22.6394 53 18.7818 52.9974 15.7742 52.7057C12.8011 52.4174 10.8992 51.8636 9.38144 50.9098C7.64669 49.82 6.17981 48.3532 5.08977 46.6186C4.13636 45.1008 3.5822 43.1989 3.29432 40.2258C3.00265 37.2182 3 33.3606 3 28C3 22.6394 3.00265 18.7818 3.29432 15.7742C3.5822 12.8011 4.13636 10.8992 5.08977 9.38144C6.17976 7.64665 7.64665 6.17976 9.38144 5.08977C10.8992 4.13636 12.8011 3.5822 15.7742 3.29432C18.7814 3.00265 22.639 3 28 3C33.3606 3 37.2182 3.00265 40.2258 3.29432C43.1989 3.5822 45.1008 4.13636 46.6186 5.08977C48.3532 6.17981 49.82 7.64669 50.9098 9.38144C51.8636 10.8992 52.4174 12.8011 52.7057 15.7742C52.9974 18.7818 53 22.6394 53 28C53 33.3606 52.9974 37.2182 52.7057 40.2258C52.4174 43.1989 51.8636 45.1008 50.9098 46.6186C49.8199 48.3532 48.3532 49.8199 46.6186 50.9098C45.1008 51.8636 43.1989 52.4174 40.2258 52.7057C37.2182 52.9974 33.3606 53 28 53Z" stroke="#FBF8F6" stroke-width="6"/>
<path d="M28 39.364C34.276 39.364 39.3637 34.2763 39.3637 28.0004C39.3637 21.7244 34.276 16.6367 28 16.6367C21.7241 16.6367 16.6364 21.7244 16.6364 28.0004C16.6364 34.2763 21.7241 39.364 28 39.364Z" stroke="#FBF8F6" stroke-width="6"/>
<path d="M42.7727 16.6361C44.6555 16.6361 46.1818 15.1098 46.1818 13.227C46.1818 11.3442 44.6555 9.81787 42.7727 9.81787C40.8899 9.81787 39.3636 11.3442 39.3636 13.227C39.3636 15.1098 40.8899 16.6361 42.7727 16.6361Z" fill="#FBF8F6"/>
</svg>
