<svg width="52" height="52" viewBox="0 0 52 52" fill="none" xmlns="http://www.w3.org/2000/svg">
<path d="M48.5 1H3.5C2.83696 1 2.20107 1.26339 1.73223 1.73223C1.26339 2.20107 1 2.83696 1 3.5V48.5C1 49.163 1.26339 49.7989 1.73223 50.2678C2.20107 50.7366 2.83696 51 3.5 51H48.5C49.163 51 49.7989 50.7366 50.2678 50.2678C50.7366 49.7989 51 49.163 51 48.5V3.5C51 2.83696 50.7366 2.20107 50.2678 1.73223C49.7989 1.26339 49.163 1 48.5 1ZM40.2975 22.8125C40.025 22.84 39.75 22.8525 39.4775 22.855C37.9942 22.8569 36.5339 22.4893 35.2283 21.7852C33.9228 21.0812 32.8133 20.0629 32 18.8225V32.555C32.0005 34.5632 31.4054 36.5264 30.29 38.1964C29.1747 39.8663 27.5891 41.168 25.7338 41.9367C23.8786 42.7054 21.8371 42.9067 19.8675 42.515C17.8978 42.1234 16.0886 41.1564 14.6686 39.7364C13.2486 38.3164 12.2816 36.5072 11.89 34.5375C11.4983 32.5679 11.6996 30.5264 12.4683 28.6712C13.237 26.8159 14.5387 25.2303 16.2086 24.115C17.8786 22.9996 19.8418 22.4045 21.85 22.405C22.0625 22.405 22.2675 22.425 22.4775 22.4375V27.4375C21.778 27.3528 21.0687 27.412 20.3929 27.6115C19.7172 27.811 19.0894 28.1466 18.5481 28.5976C18.0068 29.0486 17.5635 29.6056 17.2454 30.2342C16.9273 30.8629 16.741 31.5499 16.6982 32.2532C16.6553 32.9565 16.7567 33.661 16.9962 34.3237C17.2356 34.9863 17.6081 35.593 18.0906 36.1064C18.5731 36.6198 19.1555 37.0291 19.802 37.3092C20.4485 37.5893 21.1454 37.7342 21.85 37.735C23.2404 37.7602 24.5852 37.2386 25.595 36.2825C26.6049 35.3265 27.1991 34.0122 27.25 32.6225L27.3 9.295H32.085C32.3035 11.3736 33.2457 13.3093 34.747 14.7635C36.2483 16.2177 38.213 17.0978 40.2975 17.25V22.8125Z" fill="#FBF8F6" stroke="#FBF8F6"/>
</svg>
