<svg width="52" height="52" viewBox="0 0 52 52" fill="none" xmlns="http://www.w3.org/2000/svg">
<path d="M22.6699 30.8145L30.8535 26.0098L22.6699 21.2051V30.8145Z" fill="#FBF8F6" stroke="#FBF8F6" stroke-width="0.390625"/>
<path d="M47.0938 1H4.90625C2.74805 1 1 2.74805 1 4.90625V47.0938C1 49.252 2.74805 51 4.90625 51H47.0938C49.252 51 51 49.252 51 47.0938V4.90625C51 2.74805 49.252 1 47.0938 1ZM38.5 30.4727C38.5 34.7793 34.1934 34.7793 34.1934 34.7793H17.8066C13.5 34.7793 13.5 30.4727 13.5 30.4727V21.5371C13.5 17.2305 17.8066 17.2305 17.8066 17.2305H34.1934C38.5 17.2305 38.5 21.5371 38.5 21.5371V30.4727Z" fill="#FBF8F6" stroke="#FBF8F6" stroke-width="0.390625"/>
</svg>
