<svg xmlns="http://www.w3.org/2000/svg" width="145" height="70" viewBox="0 0 145 70" fill="none">
  <rect x="48.6667" y="32.5441" width="95.3333" height="36.451" rx="18.2255" fill="#FFB066"/>
  <g filter="url(#filter0_d_72_59)">
    <rect x="1" y="1" width="131.083" height="37.8529" rx="18.9265" fill="#FFA755"/>
  </g>
  <path d="M48.6667 41.1678L54.2182 47.2647L51.7111 43.1403C51.7111 43.1403 56.1881 44.9335 57.6208 42.961C59.0534 40.9885 57.979 37.2228 57.979 37.2228C57.979 37.2228 60.4861 39.5539 62.0978 39.1953C63.7096 38.8366 65.3213 35.6089 65.3213 35.6089C65.3213 35.6089 66.9331 39.5539 68.3657 39.5539C69.7984 39.5539 71.4101 35.2502 71.4101 35.2502L73.201 38.6573L71.052 33.0984C71.052 33.0984 69.6193 38.2987 68.3657 38.1194C67.1122 37.94 65.3213 31.8431 65.3213 31.8431C65.3213 31.8431 63.8887 36.8641 61.7397 37.2228C59.5907 37.5814 54.7555 32.7397 54.7555 32.7397C54.7555 32.7397 57.979 40.8092 56.1881 42.0644C54.3973 43.3197 48.6667 41.1678 48.6667 41.1678Z" fill="black"/>
  <path fill-rule="evenodd" clip-rule="evenodd" d="M115.4 53.0162V36.3925H125.052L125.052 41.2653L125.052 42.1125L125.052 53.0162V53.195L125.06 53.1876C125.147 54.1933 125.991 54.9825 127.019 54.9825C128.105 54.9825 128.985 54.1022 128.985 53.0162C128.985 51.9881 128.196 51.1442 127.19 51.0574L127.197 51.05H127.021L127.019 51.05L127.017 51.05H125.767V41.1471C126.294 41.0765 126.831 41.04 127.376 41.04C133.991 41.04 139.352 46.402 139.352 53.0163C139.352 59.6306 133.991 64.9925 127.376 64.9925C120.762 64.9925 115.4 59.6306 115.4 53.0163C115.4 53.0162 115.4 53.0162 115.4 53.0162Z" fill="black"/>
  <path fill-rule="evenodd" clip-rule="evenodd" d="M101.1 42.0442L101.1 41.755H91.09V53.91L91.0952 53.9041C91.2811 60.1583 96.4095 65.1713 102.709 65.1713C108.728 65.1713 113.679 60.5936 114.269 54.7296L114.327 54.8038V41.755H104.675V42.0995L104.675 42.0994V53.195V53.195C104.675 54.1822 103.875 54.9825 102.887 54.9825C101.9 54.9825 101.1 54.1822 101.1 53.195V53.195L101.1 42.6488L101.1 42.0442Z" fill="black"/>
  <path fill-rule="evenodd" clip-rule="evenodd" d="M79.6293 53.5525C79.2592 59.9327 73.9679 64.9925 67.4949 64.9925C60.7819 64.9925 55.3399 59.5505 55.3399 52.8375C55.3399 46.1245 60.7819 40.6825 67.4949 40.6825C74.0884 40.6825 79.4557 45.9323 79.6448 52.48H69.6399L69.624 52.5753C69.4947 51.5143 68.5908 50.6925 67.4949 50.6925C66.3103 50.6925 65.3499 51.6529 65.3499 52.8375C65.3499 54.0222 66.3103 54.9825 67.4949 54.9825C68.4289 54.9825 69.2234 54.3856 69.5179 53.5525H79.6293ZM79.6499 52.8513C79.6499 52.8467 79.6499 52.8421 79.6499 52.8375C79.6499 52.8329 79.6499 52.8283 79.6499 52.8237V52.8513Z" fill="black"/>
  <rect x="80.365" y="36.035" width="9.6525" height="28.2425" fill="black"/>
  <path fill-rule="evenodd" clip-rule="evenodd" d="M18.5175 31.3874C19.0015 31.3874 19.4787 31.3583 19.9475 31.3017L19.9475 21.735H18.7975V21.7324C18.7639 21.7341 18.7302 21.735 18.6962 21.735C17.6103 21.735 16.73 20.8547 16.73 19.7688C16.73 18.6828 17.6103 17.8025 18.6962 17.8025C19.7522 17.8025 20.6138 18.635 20.6605 19.6795H20.6625V19.7644L20.6625 19.7688L20.6625 19.7731V31.1929C20.6625 31.1929 20.6625 31.1929 20.6625 31.1929V31.3875H30.315V19.0538L30.3032 19.0588C30.0254 12.7897 24.855 7.79245 18.5175 7.79245C12.0019 7.79245 6.71997 13.0744 6.71997 19.5899C6.71997 26.1055 12.0019 31.3874 18.5175 31.3874Z" fill="black"/>
  <path fill-rule="evenodd" clip-rule="evenodd" d="M43.185 31.745C42.701 31.745 42.2237 31.7158 41.755 31.6592L41.755 22.0925H42.905V22.0899C42.9385 22.0916 42.9723 22.0925 43.0063 22.0925C44.0922 22.0925 44.9725 21.2122 44.9725 20.1263C44.9725 19.0403 44.0922 18.16 43.0063 18.16C41.9502 18.16 41.0887 18.9925 41.042 20.037H41.04V25.0717L41.04 25.0717V36.75H31.3875V19.97C31.3875 19.9625 31.3875 19.955 31.3875 19.9475C31.3875 19.94 31.3875 19.9325 31.3875 19.925V19.2325L31.4081 19.245C31.7715 13.0564 36.9053 8.14996 43.185 8.14996C49.7006 8.14996 54.9825 13.4319 54.9825 19.9475C54.9825 26.463 49.7006 31.745 43.185 31.745Z" fill="black"/>
  <path fill-rule="evenodd" clip-rule="evenodd" d="M67.8525 32.1025C74.5655 32.1025 80.0075 26.6605 80.0075 19.9475C80.0075 13.2344 74.5655 7.79245 67.8525 7.79245C61.1395 7.79245 55.6975 13.2344 55.6975 19.9475C55.6975 26.6605 61.1395 32.1025 67.8525 32.1025ZM67.8525 22.0925C69.0371 22.0925 69.9975 21.1322 69.9975 19.9475C69.9975 18.7629 69.0371 17.8025 67.8525 17.8025C66.6678 17.8025 65.7075 18.7629 65.7075 19.9475C65.7075 21.1322 66.6678 22.0925 67.8525 22.0925Z" fill="black"/>
  <path fill-rule="evenodd" clip-rule="evenodd" d="M114.328 32.1025C121.041 32.1025 126.483 26.6605 126.483 19.9475C126.483 13.2344 121.041 7.79245 114.328 7.79245C107.614 7.79245 102.173 13.2344 102.173 19.9475C102.173 26.6605 107.614 32.1025 114.328 32.1025ZM114.327 22.0925C115.512 22.0925 116.472 21.1322 116.472 19.9475C116.472 18.7629 115.512 17.8025 114.327 17.8025C113.143 17.8025 112.182 18.7629 112.182 19.9475C112.182 21.1322 113.143 22.0925 114.327 22.0925Z" fill="black"/>
  <rect x="80.7225" y="3.14496" width="9.6525" height="28.2425" fill="black"/>
  <rect x="91.4475" y="3.14496" width="9.6525" height="28.2425" fill="black"/>
  <defs>
    <filter id="filter0_d_72_59" x="0.2" y="0.2" width="134.683" height="41.4529" filterUnits="userSpaceOnUse" color-interpolation-filters="sRGB">
      <feFlood flood-opacity="0" result="BackgroundImageFix"/>
      <feColorMatrix in="SourceAlpha" type="matrix" values="0 0 0 0 0 0 0 0 0 0 0 0 0 0 0 0 0 0 127 0" result="hardAlpha"/>
      <feOffset dx="1" dy="1"/>
      <feGaussianBlur stdDeviation="0.9"/>
      <feComposite in2="hardAlpha" operator="out"/>
      <feColorMatrix type="matrix" values="0 0 0 0 0 0 0 0 0 0 0 0 0 0 0 0 0 0 0.25 0"/>
      <feBlend mode="normal" in2="BackgroundImageFix" result="effect1_dropShadow_72_59"/>
      <feBlend mode="normal" in="SourceGraphic" in2="effect1_dropShadow_72_59" result="shape"/>
    </filter>
  </defs>
</svg>